<?xml version="1.0" encoding="UTF-8"?>
<!DOCTYPE svg PUBLIC "-//W3C//DTD SVG 1.0//EN" "http://www.w3.org/TR/2001/REC-SVG-20010904/DTD/svg10.dtd">
<svg version="1.0" xmlns="http://www.w3.org/2000/svg" width="556px" height="360px" viewBox="0 0 556 360" preserveAspectRatio="xMidYMid meet">
 <g fill="#5eaf3d">
  <path d="M266.5 257.7 c-24.1 -14.2 -36.8 -26.8 -40.9 -40.7 -2.9 -9.7 -1.8 -16.7 3.9 -24.7 1.9 -2.6 4.5 -6.5 6 -8.5 2.6 -3.8 7.2 -6 8.4 -4 0.5 0.8 2.4 0.9 6.1 0.3 3.9 -0.6 7 -0.5 10.8 0.5 6.6 1.7 8.5 2.7 13.9 7.1 4.2 3.3 4.2 3.4 4.5 10.6 l0.3 7.2 7.5 0.5 7.5 0.5 0.3 8.3 0.3 8.2 -5.8 0 c-9.8 0 -10.5 0.4 -10.3 6.4 0.3 10.6 1.1 9.7 -8.2 9.4 l-8.3 -0.3 -0.3 -7.2 -0.3 -7.2 -3.2 -0.6 c-1.8 -0.3 -5.2 -0.6 -7.7 -0.7 l-4.5 -0.3 -0.3 -8.2 -0.3 -8.2 7.8 -0.3 7.8 -0.3 0.3 -6.8 0.3 -6.8 -3.5 -1.4 c-7.5 -3.2 -18.2 -1.2 -23.4 4.2 -4.2 4.5 -5.6 8.5 -5.6 15.4 0 8.2 3.3 15.4 10.6 23.4 9.5 10.4 27.6 22.3 32.1 21.1 3.9 -1 21 -12.9 26.7 -18.7 14 -14.2 16.9 -28.9 7.9 -40.3 -3.3 -4.2 -9.3 -6.5 -16.9 -6.6 l-6.5 -0.1 3 -2.4 c3.4 -2.9 12.4 -6.5 16 -6.5 10 0 18.6 5.3 23.2 14.4 2.2 4.2 2.6 6.5 2.7 12.7 0 6.5 -0.5 8.5 -3.2 14.1 -6.9 14.4 -20.1 25 -42.1 34 -9.8 4 -13.2 4.5 -16.6 2.5z"/>
  <path d="M230.2 243.3 c-16.7 -11.2 -28.7 -29.4 -33.2 -50.4 -0.8 -3.7 -1.1 -10.3 -0.8 -18.5 0.4 -11 0.9 -14.2 3.5 -21.6 3.8 -11.1 10.1 -21.6 17.2 -29.2 5.5 -5.8 16.6 -14.6 18.4 -14.6 1.6 0 0.1 8.9 -1.8 11 -1.7 1.9 -1.7 2 0.3 2 1.9 0 2.2 0.6 2.2 4.4 0 5.3 1.2 8.7 4 11.8 1.2 1.3 2.7 3 3.4 3.8 0.7 0.8 1.9 3.2 2.7 5.3 1.1 3.3 1.7 3.7 4.6 3.7 2.2 0 3.3 0.5 3.3 1.5 0 1.8 -2.2 2.9 -9 4.5 -8.9 2 -8.8 1.9 -6.6 3.6 1.1 0.8 1.5 1.4 0.8 1.4 -0.6 0 -4.3 2.7 -8.1 5.9 -7.5 6.5 -11.2 12.5 -13.2 21.7 -0.7 3 -1.7 5.4 -2.2 5.4 -1.2 0 -0.1 -11.7 1.4 -15.6 0.5 -1.5 0.7 -2.9 0.4 -3.3 -1.1 -1.1 -2.4 2.4 -3.6 9.7 -0.6 3.9 -1.5 7.2 -2 7.2 -1.4 0 -2.2 -9 -1.5 -17.9 1 -11.7 3.7 -22.4 8.3 -31.8 2.1 -4.3 4 -8.1 4.1 -8.5 0.2 -0.5 -0.1 -0.8 -0.7 -0.8 -2.7 0 -11.7 17.7 -14.7 29 -2.4 9 -2.4 29.2 0 38 3.9 14.5 12.8 29.3 23.6 39.4 2.8 2.6 5 5.2 4.8 5.6 -0.2 0.5 -2.7 -0.8 -5.6 -2.7z"/>
  <path d="M363.4 172.6 c-0.3 -0.9 0.4 -2.8 1.6 -4.3 l2.2 -2.8 -2.4 -0.3 c-2 -0.2 -2.7 -1.1 -3.6 -5 -0.6 -2.6 -1.4 -5.5 -1.7 -6.4 -0.6 -1.4 -0.2 -1.8 1.6 -1.9 2.4 -0.1 2.4 -0.1 -0.2 -1 -1.4 -0.5 -3.1 -2 -3.7 -3.2 -3.5 -7.2 -4.3 -9.8 -3.7 -11.8 0.6 -1.9 0.4 -2.1 -1.4 -1.6 -2.1 0.5 -3.4 -1.4 -5.5 -7.6 -0.3 -0.9 -1.7 -2.2 -3.1 -2.7 -1.4 -0.5 -2.5 -1.3 -2.5 -1.8 0 -0.4 -1.4 -1.6 -3.1 -2.6 -4.1 -2.4 -5.4 -6.1 -3.4 -9.2 2.8 -4.3 8.9 -2.7 10.8 2.9 0.4 1.1 0.1 1.7 -0.8 1.7 -0.8 0 -1.2 0.6 -0.9 1.4 0.3 0.8 0 1.7 -0.5 2.1 -2.4 1.4 0.1 2.2 4.1 1.4 5.6 -1.3 6.6 -0.1 4.5 5.2 -0.9 2.4 -1.4 4.5 -1.2 4.8 0.3 0.3 1.9 -0.3 3.5 -1.3 1.7 -0.9 3.5 -1.4 4 -1.1 1.9 1.2 4.1 6.6 3.5 8.5 -0.5 1.5 -0.2 2 1.4 2 2.3 0 4.6 5.8 3.7 9.6 -0.5 1.9 -0.3 2.4 1.3 2.4 1.2 0 2.1 0.9 2.5 2.8 0.4 1.5 0.9 3.5 1.2 4.5 0.4 1.4 0.1 1.8 -1.3 1.7 -4.1 -0.5 -6.3 0.1 -6.3 1.5 0 1.2 0.9 1.3 4.5 0.8 3.2 -0.4 4.5 -0.2 4.5 0.6 0 1.6 -2 5.4 -3.4 6.3 -0.6 0.4 0.1 0.8 1.7 0.8 3.5 0 3.7 2.8 0.2 3.5 -1.4 0.3 -3.6 0.7 -5 1 -1.7 0.4 -2.7 0.1 -3.1 -0.9z m0.6 -28.1 c0 -0.6 -1.3 -1.2 -3 -1.3 -3 -0.1 -3.1 0.4 -0.7 3.6 1.1 1.4 3.7 -0.1 3.7 -2.3z"/>
  <path d="M183.8 160.7 c-5.4 -1.5 -5.2 -4.2 0.2 -3.3 2.9 0.4 4 0.3 4 -0.6 0 -0.7 0.3 -2.3 0.6 -3.4 0.5 -1.8 0 -2.4 -3 -3.4 -3.5 -1.1 -4.5 -2.3 -2.7 -3.4 1.1 -0.7 10.1 2.3 10.1 3.3 0 0.4 -0.3 1.1 -0.7 1.5 -0.4 0.3 -0.8 1.4 -0.9 2.4 -1.3 8.8 -1.2 8.7 -7.6 6.9z"/>
  <path d="M184 142.9 c0 -1.5 0.8 -1.9 3.6 -1.9 l3.5 0 -2 -2.6 c-1.8 -2.3 -1.9 -5.5 -0.2 -5.4 1.4 0.1 7.4 9.1 6.5 9.9 -0.5 0.5 -3.3 1.1 -6.1 1.3 -4.7 0.4 -5.3 0.3 -5.3 -1.3z"/>
  <path d="M193.7 134.4 c-3.9 -2.5 -4.5 -5.2 -1.2 -4.6 1.6 0.3 1.7 0.1 0.6 -1.2 -1.8 -2.1 -0.7 -3.4 3.5 -4.2 3.2 -0.6 3.4 -0.8 1.9 -2.4 -1.9 -2 -1 -3.2 2 -2.4 2 0.5 2.2 0.2 1.7 -2.1 -0.3 -1.8 0.2 -3.3 1.8 -5.1 2.4 -2.5 6 -3.3 6 -1.2 0 0.6 0.3 0.8 0.7 0.5 0.3 -0.4 1.7 0.3 3 1.5 l2.3 2.2 -3.2 3.3 c-1.9 1.9 -4.2 3.3 -5.6 3.3 -1.9 0 -2.2 0.3 -1.4 1.3 1.5 1.8 0.2 3.3 -3.7 4.2 -3 0.6 -3.2 0.9 -1.8 2.3 1.4 1.3 1.4 1.8 0.1 4.4 -1.7 3.4 -1.9 3.4 -6.7 0.2z"/>
  <path d="M216.2 109 c-4 -5.4 -2.1 -8.3 2.2 -3.4 2.2 2.6 2.3 2.7 4.9 0.9 l2.7 -1.7 -2.1 -3.4 c-2 -3.2 -2 -3.4 -0.2 -4.1 1 -0.4 2.4 -1.3 3.2 -2.1 1.3 -1.2 1.6 -1.2 2.7 0.3 1.1 1.5 1.3 1.5 1.8 -0.3 0.7 -2.2 3.4 -4.8 4.2 -4 0.2 0.3 0 1.7 -0.6 3.2 -0.9 2.3 -0.7 2.8 1.5 3.8 3.2 1.4 3.8 0.8 2.5 -2.6 -1.9 -5.1 -1.3 -6 5.4 -7.2 2 -0.3 2.4 0 2.2 2 0 1.3 -0.3 2.4 -0.6 2.4 -2.7 -0.2 -5 0.4 -5 1.3 0 0.7 1 0.9 2.5 0.5 2.8 -0.7 6.9 1 6 2.4 -0.7 1.1 -11.6 4.4 -13.5 4.1 -0.8 -0.2 -1.9 -0.4 -2.5 -0.4 -0.5 -0.1 -0.9 0.6 -1 1.5 0 1.7 -10.6 9.8 -12.9 9.8 -0.7 0 -2.2 -1.3 -3.4 -3z"/>
  <path d="M321.7 107.2 c-2.1 -2.3 -2.2 -4.2 -0.1 -4.2 0.8 0 1.3 -0.4 1 -0.9 -1.1 -1.7 0.6 -4.1 2.8 -4.1 1.2 0 3.2 0.7 4.4 1.6 2.4 1.7 3 4.4 0.9 4.4 -0.8 0 -1.3 1 -1.3 2.3 0.1 3 -5.2 3.7 -7.7 0.9z"/>
  <path d="M311.1 99.3 c-1.2 -3.2 -1.4 -3.4 -2.4 -1.7 -1.4 2.7 -1.4 2.7 -2.8 1.8 -0.7 -0.4 -2.2 -0.9 -3.4 -1 -2.9 -0.3 -7.5 -2.2 -7.5 -3.1 0 -0.5 -4.6 -0.9 -10.2 -1 -5.6 -0.2 -10.5 -0.6 -10.8 -1 -0.4 -0.5 -0.5 -2.9 -0.2 -5.5 0.4 -4.3 0.6 -4.7 2.6 -4.3 1.1 0.3 5.2 0.7 9 0.9 5.2 0.3 7.3 0.9 8.9 2.5 1.7 1.7 2.2 1.8 3.1 0.6 0.9 -1.3 1.7 -1.3 5.1 -0.1 2.1 0.8 4.1 1.8 4.2 2.3 0.2 0.6 1.4 0.8 2.7 0.6 2 -0.4 2.5 0 3.1 2.6 0.7 3.5 1.9 3.9 3.4 1.4 0.7 -1.3 1.3 -1.5 2 -0.8 1.6 1.6 -1.7 9.5 -3.9 9.5 -0.9 0 -2.1 -1.5 -2.9 -3.7z m-19.1 -9.3 c0 -1.3 -0.7 -2 -1.9 -2 -2.2 0 -3.5 1.5 -2.6 3 1.2 1.9 4.5 1.1 4.5 -1z"/>
  <path d="M320 96.1 c0 -1.2 0.6 -2.1 1.6 -2.1 0.9 0 1.4 0.7 1.2 1.7 -0.5 2.5 -2.8 2.8 -2.8 0.4z"/>
  <path d="M253.1 92.3 c-1.4 -4.8 -1.4 -6.3 -0.1 -6.3 0.6 0 1.1 0.1 1.3 0.2 0.1 0.1 1.3 -0.4 2.5 -1.1 2.1 -1.1 2.7 -1 4.7 0.9 l2.3 2.2 0.7 -2.1 c0.8 -2.6 3.5 -2.8 3.5 -0.2 0 1 0.3 3.3 0.6 5 0.6 2.8 0.4 3.1 -1.9 3.1 -1.4 0 -2.7 -0.7 -3.1 -1.5 -0.8 -2.2 -3.6 -1.9 -3.6 0.4 0 1.6 -2.4 3 -5.2 3.1 -0.4 0 -1.2 -1.7 -1.7 -3.7z"/>
 </g>
 <g fill="#377dc0">
  <path d="M234 245.5 c-0.7 -0.8 -1.8 -1.5 -2.6 -1.5 -0.7 0 -1.6 -0.4 -1.9 -1 -0.4 -0.6 0.1 -0.7 1.2 -0.3 1.6 0.6 1.7 0.5 0.3 -1.2 -1.1 -1.4 -0.6 -1.2 1.7 0.5 1.8 1.4 3.2 3.1 3.2 3.8 0.1 1.6 -0.4 1.5 -1.9 -0.3z"/>
  <path d="M320 237.6 c0 -0.1 2 -3.4 4.5 -7.1 6.2 -9.5 8 -15.2 8 -25.5 0 -7 -0.5 -9.4 -2.5 -13.3 -2.9 -5.8 -11.2 -13.9 -17.4 -16.9 -5.8 -2.8 -6.4 -5.8 -1.1 -5.8 2.8 0 3.5 0.4 3.5 2 0 1.6 0.7 2 3.2 2 1.8 0 4.8 1.1 7 2.6 3.9 2.8 11.8 13.5 11.8 16.1 0 0.8 0.4 1.2 0.9 0.9 0.4 -0.3 1.4 -5.6 2 -11.8 0.7 -6.2 1.9 -15.6 2.7 -21 1.7 -10.7 1.4 -12.3 -4.6 -22 -3.2 -5.2 -4 -10.8 -1.5 -10.8 2.2 0 9.9 12.2 13.9 22.3 6.3 15.7 5.9 39.2 -1 56.1 -4.4 10.8 -12.4 21.4 -12.4 16.4 0 -0.7 -1.3 1.2 -2.9 4.2 -3.6 6.8 -8.7 12 -11.8 12 -1.3 0 -2.3 -0.2 -2.3 -0.4z"/>
  <path d="M238 182 c0 -1.4 1.6 -3 5.3 -5.4 2.7 -1.8 2.7 -1.8 2.7 0.3 0 1.1 -0.5 2.1 -1.1 2.1 -0.6 0 -0.9 0.7 -0.5 1.5 0.3 0.8 0 1.5 -0.7 1.5 -0.7 0 -2.2 0.3 -3.4 0.6 -1.5 0.4 -2.3 0.2 -2.3 -0.6z"/>
  <path d="M251 173.6 c0 -0.7 0.6 -1.9 1.3 -2.5 1.7 -1.3 17.8 -7.2 27.5 -9.9 l7.2 -2 0 2.9 c0 2.6 -0.4 2.9 -3 2.9 -1.6 0 -3 0.4 -3 1 0 0.5 -2.2 1.2 -5 1.6 -2.7 0.4 -5 1 -5 1.5 0 0.5 -1.3 0.9 -2.8 0.9 -1.5 0 -3.2 0.4 -3.8 0.9 -1.1 1 -10.2 4.1 -12.1 4.1 -0.7 0 -1.3 -0.6 -1.3 -1.4z"/>
  <path d="M311 153.1 c0 -1.1 1.2 -2.3 3 -3.1 3.7 -1.5 9.8 -7.5 11.1 -10.7 1.2 -3.1 1.2 -8.9 0 -13.1 -0.9 -3.1 -0.8 -3.2 1.9 -3.2 3.3 0 4 1.7 4 11 0 8.9 -2.5 14.1 -8.6 18 -5.6 3.5 -11.4 4.1 -11.4 1.1z"/>
  <path d="M314.3 137.8 c-0.6 -1.3 -1.7 -4.5 -2.4 -7.3 -1.5 -6.1 -3.1 -7.4 -8.6 -7.5 -3.1 0 -4.3 -0.4 -4.3 -1.5 0 -2.1 3.3 -3.5 8.4 -3.5 3.9 0 5.2 0.6 8.5 3.5 4.6 4.1 6 9.3 4.1 15 -1.3 4.1 -4.1 4.7 -5.7 1.3z"/>
 </g>
 <g fill="#8ccb30">
  <path d="M228.4 238.8 l-2.9 -3.3 3.3 2.9 c3 2.8 3.7 3.6 2.9 3.6 -0.2 0 -1.6 -1.5 -3.3 -3.2z"/>
  <path d="M241.9 236.3 l-3.4 -3.8 3.8 3.4 c3.4 3.3 4.2 4.1 3.4 4.1 -0.2 0 -1.9 -1.7 -3.8 -3.7z"/>
  <path d="M314 235.7 c0 -0.2 1.5 -1.6 3.3 -3.3 l3.2 -2.9 -2.9 3.3 c-2.8 3 -3.6 3.7 -3.6 2.9z"/>
  <path d="M294.2 215.3 c-0.1 -5.4 -0.6 -8.3 -1.4 -8.6 -1 -0.4 -1 -0.6 0 -0.6 1.9 -0.1 2.3 1.9 1.9 10 l-0.3 7.4 -0.2 -8.2z"/>
  <path d="M246.3 217.5 c0 -2.7 0.2 -3.8 0.4 -2.2 0.2 1.5 0.2 3.7 0 5 -0.2 1.2 -0.4 0 -0.4 -2.8z"/>
  <path d="M224.3 208 c0 -3 0.2 -4.3 0.4 -2.7 0.2 1.5 0.2 3.9 0 5.5 -0.2 1.5 -0.4 0.2 -0.4 -2.8z"/>
  <path d="M326.7 202.9 c-1 -2.8 -1.7 -5.5 -1.7 -6 0 -2.1 -6.4 -11 -9.3 -12.8 -1.8 -1.1 -2.7 -2.1 -2.1 -2.1 2.2 0 9.6 7.4 11.8 11.9 2.1 4.1 4.4 14.1 3.3 14.1 -0.2 0 -1.1 -2.3 -2 -5.1z"/>
  <path d="M215 190 c0 -1.6 0.2 -3 0.4 -3 0.2 0 0.6 1.4 0.8 3 0.3 1.7 0.1 3 -0.4 3 -0.4 0 -0.8 -1.3 -0.8 -3z"/>
  <path d="M276.1 189.6 l-2.4 -3.1 2.8 2.7 c1.6 1.5 2.7 2.9 2.4 3.1 -0.2 0.3 -1.5 -1 -2.8 -2.7z"/>
  <path d="M289.3 188.3 c0.9 -0.2 2.5 -0.2 3.5 0 0.9 0.3 0.1 0.5 -1.8 0.5 -1.9 0 -2.7 -0.2 -1.7 -0.5z"/>
  <path d="M210.3 181.5 c0 -3.8 0.2 -5.3 0.4 -3.2 0.2 2 0.2 5.2 0 7 -0.2 1.7 -0.4 0.1 -0.4 -3.8z"/>
  <path d="M268.5 184.4 c-2.2 -1.3 -3.5 -2.4 -3 -2.4 1.2 0 7.5 3.8 7.5 4.5 0 0.6 0.2 0.7 -4.5 -2.1z"/>
  <path d="M241.3 180.2 c0 -1.2 1 -1.9 2.6 -2 1.8 -0.1 2.2 0.1 1.2 0.7 -0.7 0.5 -1 1.4 -0.7 2 0.4 0.7 -0.1 1.1 -1.3 1.1 -1.3 0 -1.9 -0.6 -1.8 -1.8z"/>
  <path d="M300.8 180.3 c1.2 -0.2 3.2 -0.2 4.5 0 1.2 0.2 0.2 0.4 -2.3 0.4 -2.5 0 -3.5 -0.2 -2.2 -0.4z"/>
  <path d="M217.3 176.3 c-3 -1 4.9 -11 11.4 -14.5 5.8 -3.1 9.8 -4.5 8.9 -3 -0.4 0.6 0.2 1.5 1.1 2.1 1.4 0.8 1.5 1.1 0.3 1.2 -0.8 0.1 -2 0.1 -2.7 0 -0.6 -0.1 -1.5 0.4 -1.9 1 -0.4 0.8 -0.3 0.9 0.4 0.5 2.8 -1.7 0.7 0.5 -5 5.4 l-6.3 5.3 4.9 -5.1 c2.7 -2.8 4.3 -5 3.5 -4.9 -3.1 0.5 -9 5 -11.1 8.6 -1.3 2.1 -2.9 3.6 -3.5 3.4z"/>
  <path d="M369.3 169.3 c0.9 -0.2 2.5 -0.2 3.5 0 0.9 0.3 0.1 0.5 -1.8 0.5 -1.9 0 -2.7 -0.2 -1.7 -0.5z"/>
  <path d="M363.7 158.4 c-0.4 -0.4 -0.7 -1.7 -0.7 -2.8 0.1 -1.9 0.1 -2 1.1 -0.3 1.1 1.9 0.8 4.3 -0.4 3.1z"/>
  <path d="M367 157.8 c0 -0.9 -0.3 -2.3 -0.6 -3.2 -0.3 -0.9 -0.2 -1.6 0.4 -1.6 1.4 0 2.3 4.3 1.2 5.4 -0.7 0.7 -1 0.4 -1 -0.6z"/>
  <path d="M246.4 154.9 c-1.1 -0.6 -2.6 -2.7 -3.4 -4.7 -0.7 -2 -1.9 -4.4 -2.6 -5.2 -0.7 -0.8 -2.3 -2.6 -3.5 -3.9 -2.3 -2.5 -5.2 -10.7 -4.3 -12.2 0.3 -0.5 0 -0.9 -0.7 -0.9 -0.8 0 -0.8 -0.4 0.1 -1.7 1.9 -2.6 -5.6 5.4 -8 8.5 -1.1 1.5 -1.7 1.9 -1.4 1 0.7 -2.1 -0.6 -2.3 -2.6 -0.5 -0.7 0.6 0.2 -0.8 2.1 -3.2 1.8 -2.5 3.3 -5.3 3.1 -6.2 -0.2 -0.9 1.3 -3.8 3.3 -6.4 2.7 -3.5 3.3 -5 2.5 -5.9 -1.3 -1.7 -0.3 -2.6 7.9 -6.6 11.7 -5.8 24.2 -9 35.4 -9 5.4 0 5.7 0.1 5.7 2.5 0 2.2 -0.4 2.5 -3.4 2.5 -2.7 0 -9.2 1.6 -10.4 2.6 -0.2 0.1 0.5 1.5 1.6 3.1 1 1.5 3.2 4.8 4.8 7.3 3.3 5.1 7.3 9.5 9.2 10.1 1.2 0.4 -8.8 16.7 -11.1 18.1 -0.7 0.3 -2.3 1.6 -3.7 2.8 -2.9 2.5 -8.9 5.8 -14 7.7 -4.1 1.5 -3.9 1.5 -6.6 0.2z"/>
  <path d="M361.5 151 c-1.6 -0.6 -1.4 -0.8 1.3 -1.2 1.8 -0.2 3.5 -0.1 3.7 0.3 0.7 1 -2.8 1.7 -5 0.9z"/>
  <path d="M218 144.6 c0 -1.1 3 -6.6 3.6 -6.6 0.2 0 -0.3 1.5 -1.2 3.3 -1.9 3.6 -2.4 4.4 -2.4 3.3z"/>
  <path d="M187.3 141.3 c3.9 -0.4 3.9 -0.4 2 -2.6 l-1.8 -2.2 2.3 1.9 c3.2 2.8 2.7 3.6 -2 3.4 l-4.3 -0.1 3.8 -0.4z"/>
  <path d="M356.7 138.6 c-0.3 -0.8 0.1 -1.3 1.1 -1.2 0.9 0 2.2 -1 2.9 -2.4 l1.4 -2.5 -0.3 3 c-0.4 4.2 -3.9 6.3 -5.1 3.1z"/>
  <path d="M356 133 c-0.9 -1.6 -0.8 -2 0.5 -2 0.8 0 1.5 0.2 1.5 0.4 0 0.2 0.3 1.1 0.6 2 0.9 2.3 -1.3 2 -2.6 -0.4z"/>
  <path d="M195.7 132 c-1.6 -1 -2.5 -2 -2 -2.2 0.4 -0.3 2.3 0.6 4.2 1.9 4 2.7 2 3 -2.2 0.3z"/>
  <path d="M199 129.5 l-2.3 -2.5 2.9 0.1 c1.8 0.1 2.2 0.3 1.1 0.6 -1.8 0.5 -1.8 0.6 -0.1 2.4 2.6 2.8 1.1 2.3 -1.6 -0.6z"/>
  <path d="M211.8 129.2 c1.3 -1.7 2.8 -3.5 3.4 -3.9 0.7 -0.3 0.2 0.8 -1 2.5 -1.3 1.7 -2.8 3.5 -3.4 3.9 -0.7 0.3 -0.2 -0.8 1 -2.5z"/>
  <path d="M197.8 124.3 c1.4 -0.3 2 -0.9 1.5 -1.6 -0.4 -0.7 0.1 -0.6 1 0.2 2.4 1.9 2.2 2.1 -1.5 2 -2.4 -0.1 -2.7 -0.3 -1 -0.6z"/>
  <path d="M203.7 122.5 c-1.5 -1.4 -2.2 -2.5 -1.5 -2.5 1.4 0 4.8 2 3.4 2 -0.5 0 -0.3 0.7 0.4 1.5 1.8 2.2 0.9 1.8 -2.3 -1z"/>
  <path d="M221 119.6 c3.6 -4 7.8 -6.8 9.1 -6.1 0.6 0.4 -0.3 1.4 -2 2.3 -1.6 1 -4.5 2.8 -6.3 4.1 l-3.3 2.5 2.5 -2.8z"/>
  <path d="M205.3 117.3 c-0.4 -1 0.1 -2.2 1.4 -3.2 1.1 -0.9 2.3 -2.3 2.7 -3.1 0.9 -2.1 0 2 -1 4.4 -0.6 1.6 -0.4 1.8 1.1 1.3 1.5 -0.6 1.6 -0.5 0.5 0.8 -1.6 2 -3.9 1.9 -4.7 -0.2z"/>
  <path d="M337 115.1 c-1.5 -2.8 -1.3 -3.1 1.8 -3.1 2.2 0 3.2 0.7 4.1 2.8 l1.3 2.7 -2.4 -2.3 c-2.5 -2.3 -4.7 -1.9 -2.7 0.5 0.8 0.9 0.8 1.3 0.1 1.3 -0.6 0 -1.6 -0.9 -2.2 -1.9z"/>
  <path d="M225.4 106.9 c0 -1.4 0.5 -1.7 1.8 -1.3 2.3 0.7 2.3 -0.7 -0.2 -4.8 -1.1 -2 -1.6 -3.8 -1.1 -4.6 0.6 -1 1 -0.4 1.4 1.7 0.4 1.7 1.5 3.9 2.5 4.9 1.8 1.8 1.8 1.9 -1.3 3.9 -2.9 1.9 -3.1 2 -3.1 0.2z"/>
  <path d="M324.2 105.8 c-1.9 -1.9 -1.4 -2.9 0.8 -1.6 2 1.3 2.7 2.8 1.2 2.8 -0.4 0 -1.3 -0.5 -2 -1.2z"/>
  <path d="M326.4 101.9 c-1.9 -2.2 -1.9 -2.2 0.3 -1 2.4 1.2 3.9 3.1 2.5 3.1 -0.5 0 -1.7 -1 -2.8 -2.1z"/>
  <path d="M304 97.3 c0 -0.7 -1.1 -1.5 -2.5 -1.9 -1.4 -0.3 -2.5 -1 -2.5 -1.5 0 -0.5 1.1 -0.4 2.5 0.1 3.3 1.2 3.5 -1.2 0.3 -2.8 -2 -0.9 -1.8 -1 1.7 -0.7 2.2 0.1 3.9 0.5 3.8 0.9 -0.2 0.3 -0.3 1.2 -0.3 1.9 0 1.7 -2.9 5.6 -3 4z"/>
  <path d="M243.4 95.6 c2.3 -1.8 3.6 -2 3.6 -0.6 0 0.6 -0.4 1 -0.9 1 -0.5 0 -1.8 0.3 -2.8 0.6 -1.6 0.5 -1.6 0.4 0.1 -1z"/>
  <path d="M256.2 93 c-0.1 -1.6 -0.6 -4 -1.1 -5.3 -0.7 -1.8 -0.6 -2.4 0.4 -2.4 0.9 0 1.4 1.7 1.7 5 0.1 2.7 0.1 5 -0.2 5.2 -0.3 0.2 -0.7 -0.9 -0.8 -2.5z"/>
  <path d="M283.4 93.5 c-0.4 -0.8 -1.9 -1.5 -3.4 -1.5 -1.6 0 -3.2 -0.4 -3.5 -1 -0.4 -0.6 0.7 -1 2.4 -1 1.7 0 3.1 -0.4 3.1 -1 0 -0.5 -1.1 -1 -2.5 -1 -1.4 0 -2.5 -0.4 -2.5 -1 0 -0.5 1.3 -1 2.8 -1 1.5 0 3.4 -0.6 4.1 -1.2 1.1 -1.1 1.2 -0.4 0.6 3.6 -0.5 3.6 -0.3 5.1 0.7 5.7 1 0.7 1 0.9 0 0.9 -0.7 0 -1.5 -0.7 -1.8 -1.5z"/>
  <path d="M294.8 94.4 c-0.2 -0.5 -0.1 -2.2 0.2 -3.9 0.5 -2.2 0.9 -2.6 1.4 -1.4 0.7 1.7 -0.8 6.8 -1.6 5.3z"/>
  <path d="M241.4 92.1 c0.8 -1.2 4.6 -2.1 4.6 -1.1 0 0.8 -2.4 2 -4.1 2 -0.6 0 -0.8 -0.4 -0.5 -0.9z"/>
 </g>
 <g fill="#3b90cd">
  <path d="M234.6 245.7 c-1.3 -1.3 -2.8 -2.2 -3.5 -2.1 -0.6 0.1 -0.7 0 -0.1 -0.3 0.5 -0.2 0.7 -1 0.3 -1.6 -0.4 -0.7 1.2 0.3 3.5 2.1 2.3 1.9 4.2 3.6 4.2 3.8 0 1.1 -2.4 0.1 -4.4 -1.9z"/>
  <path d="M321.2 236.3 c0.2 -1 1 -1.7 1.7 -1.5 0.6 0.1 1.1 -0.5 0.9 -1.5 -0.2 -1 0.2 -1.8 0.9 -1.8 0.6 0 1.5 -0.3 1.9 -0.7 1.3 -1.4 2.4 -0.9 2.4 1 0 1 -1 2.8 -2.3 4 -2.9 2.7 -6 2.9 -5.5 0.5z"/>
  <path d="M332.6 200.9 c-0.4 -2.3 -0.5 -4.4 -0.2 -4.6 0.2 -0.2 0.7 1.4 1.1 3.7 0.4 2.3 0.5 4.3 0.2 4.6 -0.2 0.3 -0.7 -1.4 -1.1 -3.7z"/>
  <path d="M335.2 199.1 c-1.4 -6.9 -7.3 -16.4 -12.4 -20 l-3.3 -2.4 3.6 3.9 c4.6 5 8.3 10.4 7.6 11.1 -0.3 0.2 -1.2 -0.8 -2 -2.4 -0.9 -1.6 -3.8 -4.9 -6.5 -7.5 -9.2 -8.6 -18 -11.8 -34.7 -12.7 -10.3 -0.5 -13.1 -0.3 -20 1.5 -4.4 1.1 -9.3 2.6 -10.8 3.2 -9.2 3.8 -12.7 5.5 -12.7 6.3 0 1.3 -6.8 4.4 -7.7 3.5 -0.4 -0.3 0.5 -1.8 2 -3.1 2.8 -2.6 4.3 -3.3 3.1 -1.3 -0.4 0.7 -0.3 0.8 0.5 0.4 0.6 -0.4 0.9 -1.1 0.6 -1.6 -0.8 -1.3 13.4 -9.3 16.6 -9.4 1.5 -0.1 2.5 -0.4 2.3 -0.8 -0.5 -0.7 10.6 -4.5 24.6 -8.3 13 -3.6 23 -7 27.8 -9.4 5.5 -2.8 10.9 -8.6 11.8 -12.4 0.6 -2.8 0.8 -3 1.5 -1.2 0.6 1.7 0.8 1.7 0.8 0.3 0.1 -1 0.8 -1.8 1.6 -1.8 1 0 1.5 1.1 1.5 3.5 0 4.7 -1.9 8.4 -4.7 9.1 -1.4 0.4 -2.3 1.4 -2.3 2.5 0 1 -0.7 1.9 -1.5 1.9 -0.8 0 -1.5 0.4 -1.5 0.8 0 1.1 -11.1 5.4 -21.5 8.4 -8.8 2.5 -8.9 2.4 4.4 4.8 6.8 1.2 15.7 4.8 18.2 7.2 0.8 0.9 2.4 1.8 3.5 2.2 1.9 0.6 2.2 -0.1 3.8 -11.6 1 -6.8 2.4 -16.4 3.3 -21.5 1.3 -8.4 1.3 -9.4 -0.1 -11.5 -1.3 -1.8 -1.6 -1.9 -1.6 -0.5 0 2.2 -3 2.2 -3.1 0 0 -1.5 -0.2 -1.5 -0.8 0.2 -0.6 1.6 -0.9 1.2 -1.5 -2 -0.4 -2.2 -2.1 -6.8 -3.8 -10.3 -1.7 -3.4 -2.9 -6.5 -2.6 -6.7 1.3 -1.3 17.1 13.2 21.8 20 4.4 6.6 10.8 19.5 9.6 19.5 -0.2 0 -2.5 -4.2 -5 -9.4 -2.6 -5.2 -5.4 -10 -6.1 -10.6 -0.8 -0.7 0.4 1.9 2.6 5.8 5.1 8.8 5.6 12.4 3.6 25.9 -1.5 9.6 -3.4 25.5 -4.2 33.8 -0.5 5.6 -1.7 8.5 -3.4 8.5 -1.3 0 -2 -1.5 -2.9 -5.9z m-9.6 -56.3 c0.8 -1.6 1.3 -3.2 1.1 -3.5 -0.3 -0.2 -0.8 0.5 -1.2 1.6 -0.3 1.2 -2.3 3.7 -4.3 5.7 l-3.7 3.7 3.3 -2.3 c1.8 -1.2 3.9 -3.5 4.8 -5.2z"/>
  <path d="M308.7 141.7 c-0.3 -1.9 -1.5 -6.6 -2.7 -10.5 -2.1 -7.1 -2.1 -7.2 -5.5 -7.2 -2.4 0 -3.5 -0.5 -3.5 -1.5 0 -2.2 5.3 -4.5 10.4 -4.5 3.7 0 5.2 0.6 7.8 3 l3.3 3.1 -3.9 -2.6 c-2.1 -1.4 -4.8 -2.4 -6 -2.4 -2 0.1 -2 0.2 -0.1 0.6 2.8 0.7 6 3.1 6.1 4.6 0.2 3.5 1.8 9.8 2.5 10.3 1.6 0.9 1 6 -0.8 7.7 -1 0.8 -3 1.8 -4.4 2.2 -2.4 0.6 -2.7 0.3 -3.2 -2.8z"/>
 </g>
 <g fill="#4b86c7">
  <path d="M319.5 237.6 c1.5 -2 3.2 -3.3 4 -3 1.7 0.7 2.9 -1.2 1.4 -2.2 -0.8 -0.5 -0.9 -0.3 -0.4 0.6 0.5 0.9 0.4 1.1 -0.4 0.6 -0.6 -0.4 -0.9 -1.2 -0.5 -1.7 0.3 -0.5 0.9 -0.7 1.4 -0.4 2.4 1.5 11 -18.3 11 -25.4 0 -1.3 0.9 -5.4 1.9 -9 1.9 -6.5 3.4 -12.9 4.6 -20.5 1.2 -7.5 1.6 -2.6 0.5 6.7 -0.6 5.2 -1.3 12.7 -1.5 16.8 -0.3 4.1 -0.7 9.3 -1.1 11.6 -0.5 3.6 -0.4 4.1 1.1 3.9 1 -0.1 2.4 -1.1 3.1 -2.1 1.9 -2.6 1.7 -1 -0.2 2 -0.9 1.4 -2 2.2 -2.5 1.9 -0.5 -0.3 -0.6 0.3 -0.2 1.2 0.5 1.3 0.3 1.5 -0.7 0.9 -0.8 -0.5 -1.1 -0.4 -0.7 0.2 1 1.6 -7.9 11.8 -14.6 16.9 -7.3 5.4 -9.9 5.9 -6.2 1z"/>
  <path d="M333.2 206 c-0.1 -2.5 -0.5 -5.6 -0.7 -7 l-0.6 -2.5 1.1 2.5 c0.6 1.3 0.9 4.5 0.7 7 l-0.3 4.5 -0.2 -4.5z"/>
  <path d="M349.2 204.5 c0 -0.5 0.6 -2.6 1.3 -4.5 0.7 -1.9 1.4 -2.8 1.4 -2 0 0.8 -0.6 2.9 -1.4 4.5 -0.7 1.7 -1.3 2.6 -1.3 2z"/>
  <path d="M353.6 167.8 c-0.3 -1.3 -0.6 -3.3 -0.6 -4.5 0 -1.2 -1.1 -5.6 -2.4 -9.8 -2.5 -8 -2.6 -9.8 -0.1 -3.9 1.7 4.2 4.9 19.3 4.2 20 -0.2 0.3 -0.7 -0.6 -1.1 -1.8z"/>
  <path d="M311.1 141.2 c0.2 -3.1 0.3 -3.2 0.6 -0.9 0.8 5 3.3 2.5 3.3 -3.4 0 -3.1 1.7 -3.9 2.6 -1.4 0.4 0.8 1 1.2 1.5 0.9 0.5 -0.3 0.9 -0.1 0.9 0.5 0 1.7 -4.9 6.8 -7 7.4 -1.8 0.4 -2 0.1 -1.9 -3.1z"/>
  <path d="M317.8 124.9 c-1 -1.7 -3.6 -3.8 -6 -4.9 -3.2 -1.5 -3.7 -2 -2 -2 2.6 0 10.7 7 10.1 8.8 -0.2 0.6 -1.2 -0.2 -2.1 -1.9z"/>
 </g>
 <g fill="#449ed6">
  <path d="M236.9 247.5 c-1.5 -0.8 -2.9 -2.1 -3.2 -3 -0.4 -0.8 -1.3 -1.2 -2.1 -0.9 -0.8 0.3 -1.7 0.1 -2.1 -0.5 -0.4 -0.7 0.1 -0.8 1.2 -0.4 1.6 0.6 1.7 0.5 0.3 -1.3 -1.2 -1.6 -1 -1.6 1 0.2 1.4 1.2 4.3 3.4 6.4 4.8 4.1 2.7 3 3.5 -1.5 1.1z"/>
  <path d="M318.3 239.5 c1.5 -1.3 2.7 -2.8 2.7 -3.2 0 -0.5 0.3 -0.8 0.8 -0.8 1.5 0 7.2 -2.8 7.2 -3.5 0 -0.4 1.2 -1.2 2.8 -1.8 2.3 -1.1 2.2 -0.7 -1.3 2.4 -4.6 4.2 -12.4 9.4 -13.9 9.4 -0.6 0 0.1 -1.2 1.7 -2.5z"/>
  <path d="M346.2 210.5 c1.2 -2.4 2.3 -4.3 2.6 -4.1 0.4 0.5 -3.6 8.6 -4.3 8.6 -0.3 0 0.5 -2 1.7 -4.5z"/>
  <path d="M333.3 205.5 c0 -2.2 0.2 -3 0.4 -1.7 0.2 1.2 0.2 3 0 4 -0.3 0.9 -0.5 -0.1 -0.4 -2.3z"/>
  <path d="M323.1 182.6 c-4.5 -4.6 -13.3 -9.8 -18.5 -11 -2.4 -0.6 -2.7 -0.9 -1.5 -1.8 1.1 -0.8 1.1 -0.9 -0.4 -0.4 -2.5 0.8 -20.6 -0.6 -18.2 -1.4 1.8 -0.6 1.8 -0.7 -0.1 -1.2 -1 -0.3 -2.8 -0.2 -3.9 0.2 -2 0.7 -2 0.7 0 1.1 1.1 0.3 -2 1.1 -7 1.8 -12.2 1.9 -29.5 8 -29.5 10.5 -0.1 1.1 -7.8 5.2 -8.5 4.4 -0.8 -0.8 2.6 -4.8 3.6 -4.3 0.5 0.4 0.9 0 0.9 -0.7 0 -0.7 0.9 -1.9 2.1 -2.6 1.7 -1.1 2 -1.1 1.4 0 -0.4 0.7 0.2 0.3 1.2 -0.8 2 -2.4 7 -5.3 5.9 -3.5 -0.4 0.6 0.9 0.4 2.8 -0.6 2 -0.9 3.4 -1.8 3.2 -2.1 -0.2 -0.2 -1.4 0.1 -2.5 0.8 -1.2 0.6 -2.1 0.8 -2.1 0.5 0 -0.6 6.4 -3.5 7.7 -3.5 0.4 0 0.1 0.5 -0.7 1.1 -1.1 0.8 -0.9 0.9 1 0.3 3.7 -1 6.2 -2.6 3 -2 -1.7 0.4 -1.5 0.1 0.9 -1 6.6 -3 31.1 -9.5 33.4 -8.9 1.5 0.4 1.8 0.3 0.9 -0.3 -0.9 -0.6 0.4 -1.4 4.5 -2.7 12.9 -4 21.7 -10.6 22.9 -17.2 1 -5.3 -0.3 -12 -3.6 -18.6 -3.5 -7.1 -3.7 -8.1 -1 -6.7 1.1 0.6 1.8 1.5 1.6 1.9 -0.3 0.4 0.1 0.8 0.9 0.8 5 0 23.3 23 26 32.5 0.3 1.3 -1 -0.8 -3.1 -4.7 -4.5 -8.6 -7.3 -12.7 -8.3 -12 -0.5 0.2 -1.1 3 -1.4 6.2 -1.2 11.7 -5.8 40.9 -6.7 42.5 -0.6 1 -1 2.5 -1 3.4 0 1.1 -1.4 0.3 -4.7 -2.6 -4.6 -4 -15.7 -10 -18.4 -10 -0.8 0.1 0.9 1.1 3.7 2.3 6.7 2.9 12.3 6.9 15.7 11.2 3.7 4.7 3 4.4 -2.2 -0.9z m-4.1 -18.3 c0.6 -3.2 1.3 -7 1.6 -8.5 0.5 -2.3 0.2 -2.8 -1.5 -2.8 -1.2 0 -2.1 0.6 -2.1 1.5 0 0.9 -0.9 1.5 -2.5 1.5 -1.4 0 -2.5 0.5 -2.5 1 0 0.6 -1.3 1 -2.9 1 -1.6 0 -3.1 0.4 -3.3 0.9 -0.1 0.4 -3.2 1.7 -6.8 2.8 l-6.5 1.9 7.8 1.3 c4.2 0.7 7.7 1.7 7.7 2.2 0 0.5 1.4 0.9 3 0.9 1.7 0 3 0.5 3 1 0 0.6 0.9 1 1.9 1 1.6 0 2.2 -1.1 3.1 -5.7z m-47 1.2 c1.9 -0.7 2.8 -1.3 2 -1.3 -0.8 0 -3.1 0.6 -5 1.3 -1.9 0.7 -2.8 1.3 -2 1.3 0.8 0 3.1 -0.6 5 -1.3z m8.5 -2.5 c1.3 -0.5 1.4 -0.9 0.5 -0.9 -0.8 0 -2.4 0.4 -3.5 0.9 -1.3 0.5 -1.4 0.9 -0.5 0.9 0.8 0 2.4 -0.4 3.5 -0.9z m33.7 -10.9 c5.4 -2.3 10.4 -6.4 12.3 -10.2 1.5 -2.8 1.9 -12 0.7 -15.1 -0.4 -1 -0.7 1.6 -0.7 5.6 0 6.8 -0.3 7.7 -3.1 11.2 -1.6 2.1 -5.7 5.2 -9 7.1 -6.6 3.7 -6.7 4.2 -0.2 1.4z m17.8 -29.4 l-6.3 -6.2 5.9 6.7 c3.2 3.6 6.1 6.4 6.4 6.2 0.2 -0.3 -2.5 -3.3 -6 -6.7z"/>
  <path d="M303.2 140.7 c-0.6 -2.9 -1.2 -6.1 -1.2 -7.2 0 -3.7 -2.4 -8.5 -4.2 -8.5 -1 0 -1.8 -0.6 -1.8 -1.4 0 -1.9 2.7 -3.9 4.1 -3 0.7 0.4 0.9 0.3 0.6 -0.3 -0.9 -1.5 1.7 -2.3 6.6 -2.1 l4.2 0.1 -5 0.7 c-2.7 0.4 -3.8 0.8 -2.4 0.8 2.4 0.2 2.8 0.9 5.3 9.5 1.4 5.1 2.6 10.3 2.6 11.5 0 1.2 0.3 2.2 0.8 2.2 1.2 -0.1 3.7 -2.3 5.5 -5 0.9 -1.3 1.7 -1.9 1.7 -1.3 0 2.6 -5.1 7.1 -9.4 8.2 -2.5 0.6 -4.9 1.1 -5.3 1.1 -0.5 0 -1.4 -2.4 -2.1 -5.3z"/>
  <path d="M319.1 127 c-0.1 -0.8 -1.6 -3 -3.3 -5 l-3.3 -3.5 3.9 3.6 c2.2 2.1 3.6 4.3 3.3 5 -0.4 1.1 -0.6 1.1 -0.6 -0.1z"/>
 </g>
 <g fill="#b6e234">
  <path d="M215 191.8 c0 -1.9 0.2 -2 1 -0.8 1.3 1.9 1.3 3 0 3 -0.5 0 -1 -1 -1 -2.2z"/>
  <path d="M232.8 187.7 c1.7 -2.1 3.2 -4.2 3.2 -4.7 0 -0.6 0.7 -1 1.6 -1 2.2 0 1.5 1.1 -3.6 5.6 l-4.5 3.9 3.3 -3.8z"/>
  <path d="M240 182 c0 -0.5 0.5 -1.2 1.1 -1.6 0.8 -0.5 0.8 -0.9 -0.1 -1.4 -0.6 -0.4 0.4 -0.7 2.2 -0.7 1.8 -0.1 2.7 0.1 2.1 0.4 -0.7 0.3 -1.3 1.1 -1.3 1.8 0 0.7 -0.9 1.5 -2 1.8 -1.1 0.3 -2 0.1 -2 -0.3z"/>
  <path d="M225.9 171.7 c1.6 -2 9.1 -8.1 9.1 -7.4 0 0.2 -2.4 2.4 -5.2 4.8 -2.9 2.4 -4.7 3.6 -3.9 2.6z"/>
  <path d="M223.7 166.9 c0.7 -2.4 4.9 -5.5 10 -7.3 3.7 -1.3 3.9 -1.3 3.9 0.8 0 1.6 -0.6 2.1 -2.9 2.2 -1.6 0.1 -4.8 1.5 -7.2 3.2 -3.6 2.5 -4.2 2.7 -3.8 1.1z"/>
  <path d="M363.7 158.3 c-0.4 -0.3 -0.7 -1.6 -0.6 -2.7 0 -1.9 0.1 -1.9 1 0.3 1 2.4 0.8 3.6 -0.4 2.4z"/>
  <path d="M367 155.5 c0 -1.4 0.2 -2.5 0.4 -2.5 0.2 0 0.6 1.1 0.8 2.5 0.3 1.4 0.1 2.5 -0.3 2.5 -0.5 0 -0.9 -1.1 -0.9 -2.5z"/>
  <path d="M362 150.6 c0 -0.9 4 -1.3 4.6 -0.5 0.3 0.5 -0.6 0.9 -2 0.9 -1.4 0 -2.6 -0.2 -2.6 -0.4z"/>
  <path d="M270.6 142.9 c5.8 -6.7 7.5 -10.4 6.4 -13.5 -0.6 -1.5 -1.9 -3.4 -2.8 -4.3 -1 -0.9 -3.2 -3.8 -4.9 -6.6 -1.8 -2.7 -4 -6.1 -5 -7.5 -1 -1.4 -1.7 -2.9 -1.5 -3.3 0.9 -2.9 -19 7 -25.7 12.8 -3 2.6 -7.2 6.8 -9.4 9.5 -2.4 2.9 -4.5 4.6 -5.3 4.3 -1.1 -0.4 -0.7 -1.5 1.6 -4.3 6.2 -7.8 19.9 -17.6 31.4 -22.5 3.6 -1.5 6.3 -3.1 6.1 -3.6 -0.3 -0.4 1.4 -1.4 3.7 -2.3 l4.3 -1.6 -6.3 0.6 c-5.4 0.4 -10.3 1.8 -21.7 5.9 -1.6 0.5 -1.7 0.5 -0.5 -0.4 5 -3.6 23.1 -8.1 32.6 -8.1 11.3 0 30.4 4.7 30.4 7.5 0 0.6 -1.7 1.7 -3.8 2.3 -4.9 1.5 -10.9 7.5 -15.7 15.7 -2.1 3.6 -4.1 6.2 -4.6 6 -0.4 -0.3 -1.1 0 -1.5 0.6 -0.4 0.8 -0.3 0.9 0.4 0.5 0.7 -0.4 1.2 -0.4 1.2 -0.1 0 1.6 -8.4 13.2 -10.3 14.5 -1.6 1 -1.4 0.4 0.9 -2.1z m5.2 -43.6 c-1 -0.2 -2.8 -0.2 -4 0 -1.3 0.2 -0.5 0.4 1.7 0.4 2.2 0.1 3.2 -0.1 2.3 -0.4z"/>
  <path d="M355 140.3 c0 -1.6 1.5 -2.8 3.5 -2.7 3.5 0.2 4 0.4 2.5 1.3 -2.6 1.5 -6 2.3 -6 1.4z"/>
  <path d="M356.4 133.5 c-0.9 -2.2 0.1 -2.9 1.5 -1.1 0.8 1 0.9 1.6 0.1 2.1 -0.5 0.3 -1.3 -0.1 -1.6 -1z"/>
  <path d="M196.7 132.4 c-1.6 -0.9 -2.7 -1.8 -2.4 -2 0.3 -0.3 2 0.4 3.8 1.5 3.9 2.4 2.8 2.8 -1.4 0.5z"/>
  <path d="M211 130.5 c2.3 -3.4 12.3 -13.5 15.5 -15.7 1.7 -1.2 0.7 0 -2.2 2.6 -2.9 2.6 -7.3 7 -9.9 9.9 -2.6 2.9 -4.1 4.3 -3.4 3.2z"/>
  <path d="M196 124.6 c0 -0.2 1.1 -0.6 2.5 -0.8 1.4 -0.3 2.5 -0.1 2.5 0.3 0 0.5 -1.1 0.9 -2.5 0.9 -1.4 0 -2.5 -0.2 -2.5 -0.4z"/>
  <path d="M203.5 122 c-1.7 -1.9 -1.1 -2.8 1 -1.2 1 0.7 1.9 3.2 1.2 3.2 -0.2 0 -1.2 -0.9 -2.2 -2z"/>
  <path d="M205.3 117.3 c-0.4 -1 0.1 -2.2 1.4 -3.2 1.1 -0.9 2.2 -2.3 2.6 -3.1 0.4 -1.2 0.6 -1.2 0.6 0.2 0.1 0.9 -0.3 2 -0.9 2.3 -1.7 1.1 -1.2 3.8 0.6 3.1 1.4 -0.5 1.5 -0.4 0.4 0.9 -1.6 2 -3.9 1.9 -4.7 -0.2z"/>
  <path d="M336.5 114 c-0.3 -0.5 -0.3 -1.4 0 -2 1.1 -1.7 4.4 -1.1 5.5 1 1.1 2.1 -0.3 2.9 -1.5 1 -0.5 -0.8 -1.1 -0.8 -2 0 -0.9 0.8 -1.5 0.8 -2 0z"/>
  <path d="M230 112.5 c0 -0.7 8.1 -5.7 8.5 -5.3 0.2 0.2 -1.6 1.6 -4 3.1 -2.5 1.4 -4.5 2.4 -4.5 2.2z"/>
  <path d="M227.3 101.1 c-1.2 -2.1 -1.9 -4.1 -1.6 -4.5 0.3 -0.3 1.5 1.3 2.5 3.6 1 2.2 1.7 4.2 1.6 4.4 -0.2 0.1 -1.3 -1.4 -2.5 -3.5z"/>
  <path d="M304 97.3 c0 -0.6 -1.2 -1.6 -2.7 -2.2 l-2.8 -1 2.9 0.2 c3.8 0.3 4.5 -1.8 0.9 -2.8 -1.5 -0.4 -2.3 -0.9 -1.7 -1.2 0.6 -0.2 2.3 0.1 3.8 0.7 2.2 0.8 2.6 1.4 2.1 3.3 -0.8 2.6 -2.5 4.6 -2.5 3z"/>
  <path d="M243 96 c0 -0.4 0.9 -1 2 -1.3 1.1 -0.3 2 -0.2 2 0.3 0 0.4 -0.9 1 -2 1.3 -1.1 0.3 -2 0.2 -2 -0.3z"/>
  <path d="M295.3 91.8 c0.1 -2 0.5 -3.4 0.9 -3 0.4 0.4 0.3 2.1 -0.1 3.7 -0.9 3 -0.9 3 -0.8 -0.7z"/>
  <path d="M282.7 92.6 c-0.3 -0.8 -1.8 -1.6 -3.4 -1.9 l-2.8 -0.4 2.8 -0.2 c3 -0.1 3.7 -1.7 1 -2.4 -1.6 -0.4 -1.6 -0.5 0.1 -0.6 1 0 2.5 -0.9 3.3 -1.8 1.2 -1.6 1.3 -1.2 0.7 3.2 -0.7 5.7 -0.9 6.2 -1.7 4.1z"/>
  <path d="M241.3 92.3 c0.9 -1.4 4.7 -2.4 4.7 -1.2 0 0.5 -0.4 0.9 -0.9 0.9 -0.5 0 -1.7 0.3 -2.7 0.7 -1.1 0.4 -1.5 0.3 -1.1 -0.4z"/>
  <path d="M256.1 91.2 c0 -1.3 -0.6 -3.3 -1.2 -4.5 -1.1 -2 -1 -2.1 0.6 -0.6 1.1 1.1 1.5 2.7 1.2 4.5 -0.3 2.3 -0.4 2.4 -0.6 0.6z"/>
 </g>
 <g fill="#48a8dc">
  <path d="M243.2 178.9 c0.1 -1.6 0.7 -2.5 1.4 -2.2 0.7 0.2 1.5 -0.1 2 -0.8 0.4 -0.8 0.3 -1 -0.4 -0.5 -0.7 0.4 -1.2 0.5 -1.2 0.2 0 -0.3 1 -1 2.1 -1.7 1.5 -0.7 1.9 -0.8 1.5 0 -0.5 0.7 -0.1 0.9 0.8 0.5 3 -1.2 1.6 1.6 -1.6 3.2 -1.8 0.9 -3.6 2.2 -4 2.8 -0.4 0.6 -0.7 -0.1 -0.6 -1.5z"/>
  <path d="M319 178.9 c-3.1 -2.6 -10.5 -6.4 -14.4 -7.3 -1.5 -0.4 -2.6 -1 -2.2 -1.3 1.1 -1.1 12.4 4 16.3 7.4 2.1 1.8 3.6 3.2 3.3 3.2 -0.3 0 -1.6 -0.9 -3 -2z"/>
  <path d="M319 175.6 c-5.6 -3.7 -14.9 -6.8 -18.2 -6.1 -1.5 0.4 -4.3 0.3 -6 -0.1 -2.9 -0.6 -3 -0.8 -1.3 -1.5 1.7 -0.6 1.7 -0.8 0.3 -0.8 -1 -0.1 -1.8 -0.8 -1.8 -1.7 0 -1.4 0.8 -1.6 6 -1 3.3 0.4 8 1.3 10.4 2 l4.4 1.3 0.6 -3.6 c1 -5.9 0.7 -7.1 -1.3 -7.1 -1.1 0 -2.1 0.5 -2.3 1.1 -0.2 0.6 -2.5 1.3 -5.1 1.6 -2.6 0.3 -4.7 1 -4.7 1.4 0 0.5 -1.6 0.9 -3.5 0.9 -3.7 0 -5 -2.5 -1.7 -3.3 1.4 -0.4 1.4 -0.5 -0.3 -0.6 -1.1 -0.1 2 -1.5 6.8 -3.1 4.9 -1.6 10.8 -4 13.3 -5.4 2.4 -1.4 4.2 -2.1 3.9 -1.5 -0.9 1.4 -8.1 4.9 -15.5 7.5 -3.6 1.2 -6 2.3 -5.3 2.3 2.1 0.2 17.3 -5.7 21.9 -8.4 2.4 -1.4 4.8 -3.3 5.3 -4.3 0.9 -1.4 1 -1.2 1.1 1.4 0 1.7 -0.3 3.4 -0.6 3.7 -0.4 0.3 -0.8 2.1 -1 3.9 -0.5 4.7 -1.1 8.5 -2.5 14.7 -0.9 4.1 -0.9 5.8 -0.1 7.2 1.5 2.3 1.5 2.3 -2.8 -0.5z"/>
  <path d="M252.3 172.9 c0.1 -1.5 1.3 -2.7 3.5 -3.6 1.9 -0.8 3.7 -1.2 4 -0.9 0.3 0.3 -0.1 0.6 -0.8 0.6 -0.7 0 -1.1 0.2 -0.8 0.5 0.2 0.3 4.4 -0.9 9.3 -2.5 10 -3.4 11.5 -3.6 11.5 -1.6 0 1.6 -2.1 2.6 -5.8 2.6 -1.9 0 -2.3 0.3 -1.3 0.9 1.8 1.2 -4 2.5 -7 1.6 -1.6 -0.5 -1.9 -0.4 -1.4 0.6 0.6 0.9 0.2 1.1 -1.3 0.7 -1.4 -0.4 -2 -0.2 -1.5 0.5 0.4 0.6 0 0.8 -1 0.4 -1 -0.4 -1.7 -0.2 -1.7 0.4 0 0.6 -0.7 0.9 -1.5 0.5 -0.8 -0.3 -1.5 -0.1 -1.5 0.4 0 0.6 -0.6 1 -1.4 1 -0.9 0 -1.4 -0.9 -1.3 -2.1z"/>
  <path d="M282.6 163.1 c0.5 -0.5 2.1 -1.3 3.7 -1.6 2.1 -0.6 2.7 -0.4 2.7 0.9 0 1.2 -1 1.6 -3.7 1.6 -2.3 0 -3.3 -0.4 -2.7 -0.9z"/>
  <path d="M284 160 c3.4 -1.1 6 -1.1 3.5 0 -1.1 0.5 -2.9 0.8 -4 0.8 -1.6 0 -1.5 -0.2 0.5 -0.8z"/>
  <path d="M302.8 144.3 c-1.4 -1.6 -2.2 -4.5 -4.4 -16 -0.2 -1.3 -1.1 -2.3 -1.9 -2.3 -0.8 0 -1.5 -0.3 -1.5 -0.6 0 -1.5 2.3 -4.5 4.3 -5.5 2 -1.1 2.1 -1.1 0.9 0.4 -1.1 1.3 -1.1 1.5 0.5 1.1 1.4 -0.4 2.1 0.4 3.1 3.5 0.6 2.3 1.2 5.1 1.2 6.3 0.1 4.9 2.7 12.2 4.5 12.8 1.7 0.6 1.6 0.7 -0.6 1.3 -3.6 1 -4.4 0.9 -6.1 -1z"/>
  <path d="M326.1 123.3 c-1.3 -2.9 -2.8 -5 -3.3 -4.7 -0.6 0.4 -0.6 -0.2 0.1 -1.3 0.6 -1.1 0.7 -2.4 0.3 -2.8 -0.4 -0.4 0.2 -0.3 1.3 0.3 1.1 0.6 3.4 2.5 5 4.3 1.7 1.8 2.5 2.9 1.8 2.5 -0.6 -0.3 -1.4 -0.2 -1.8 0.4 -0.3 0.5 0 1 0.7 1 0.9 0 1 0.2 0.2 0.8 -0.7 0.4 -1.4 1.6 -1.6 2.7 -0.3 1.5 -1 0.7 -2.7 -3.2z m1.9 -4.8 c-1.3 -1.4 -2.8 -2.5 -3.4 -2.5 -1.1 0.1 4 5 5.1 5 0.4 0 -0.4 -1.1 -1.7 -2.5z"/>
 </g>
 <g fill="#52b2e0">
  <path d="M320.3 238 c0.2 -1.1 0.7 -2.3 1.2 -2.7 0.4 -0.5 0.5 -0.2 0.1 0.5 -1 1.7 1.4 1.5 4.4 -0.4 1.4 -0.9 1 -0.2 -1 1.5 -4 3.6 -5.1 3.9 -4.7 1.1z"/>
  <path d="M329 233.1 c0 -0.5 1.2 -1.7 2.8 -2.6 l2.7 -1.8 -2.4 2.7 c-2.6 2.8 -3.1 3.1 -3.1 1.7z"/>
  <path d="M215 192.8 c0 -2.5 0.3 -2.9 1 -1.8 1.3 2 1.3 5 0 5 -0.5 0 -1 -1.5 -1 -3.2z"/>
  <path d="M211 192.5 c0 -1.4 0.5 -2.5 1 -2.5 0.6 0 1 1.1 1 2.5 0 1.4 -0.4 2.5 -1 2.5 -0.5 0 -1 -1.1 -1 -2.5z"/>
  <path d="M236.3 182.8 c0.8 -1.3 2.2 -2.2 3 -2 0.8 0.1 2 -0.5 2.7 -1.3 1.1 -1.3 1 -1.4 -0.6 -0.9 -1.8 0.6 -1.8 0.6 0.1 -0.9 1 -0.8 2.6 -1.2 3.4 -0.9 0.9 0.3 1.2 0.1 0.7 -0.6 -0.8 -1.3 2.3 -3.1 4.3 -2.4 0.9 0.3 1.1 0 0.6 -0.8 -0.5 -0.8 -0.4 -1.1 0.3 -0.6 0.6 0.3 4.5 -0.7 8.6 -2.4 4.2 -1.6 16.4 -5.5 27.1 -8.6 10.7 -3 22.1 -6.5 25.2 -7.8 l5.8 -2.3 -0.7 9.6 c-0.4 5.3 -0.5 10.3 -0.2 11.3 0.4 1.4 -0.4 1.3 -5.3 -0.8 -3.2 -1.3 -9.1 -2.8 -13 -3.5 -7 -1.1 -8.7 -2.1 -6 -3.3 0.6 -0.4 0.1 -0.4 -1.3 -0.1 -1.4 0.3 -5.4 1.2 -9 2 -3.6 0.8 -7.6 1.5 -9 1.6 -2.3 0.1 -2.3 0.2 0.5 0.8 2.8 0.6 2.6 0.8 -2.1 1.4 -2.8 0.4 -6 0.4 -6.9 0 -1.3 -0.5 -1.6 -0.3 -1 0.6 0.6 1 0.2 1.1 -1.5 0.6 -1.6 -0.5 -2 -0.4 -1.5 0.5 0.5 0.9 0.1 1 -1.5 0.5 -1.7 -0.5 -2.1 -0.4 -1.5 0.6 0.6 0.9 0.3 1.1 -0.8 0.6 -1 -0.3 -1.7 -0.2 -1.7 0.3 0 0.8 -7.1 3.6 -7.8 3.1 -0.2 -0.1 -1.3 0.8 -2.5 2.1 -4.6 5 -11.3 7.8 -8.4 3.6z m67.4 -19.3 c0.9 -2.5 -0.1 -2.7 -5.3 -1.3 l-4.9 1.3 4 0.6 c2.2 0.3 4.4 0.7 4.8 0.8 0.4 0 1 -0.6 1.4 -1.4z"/>
  <path d="M312 174.5 c-2.5 -1.3 -4.1 -2.4 -3.7 -2.5 1.1 0 8.7 3.9 8.7 4.5 0 0.7 0 0.7 -5 -2z"/>
  <path d="M252 171.4 c0 -0.7 7.1 -3.6 7.6 -3.1 0.2 0.2 -1.4 1.1 -3.6 2 -2.2 0.8 -4 1.3 -4 1.1z"/>
  <path d="M293 169 c-2 -0.6 -2.1 -0.8 -0.5 -0.8 1.1 0 3.4 0.4 5 0.8 2.7 0.7 2.7 0.8 0.5 0.8 -1.4 0 -3.6 -0.4 -5 -0.8z"/>
  <path d="M273.5 163 c1.1 -0.5 2.7 -0.9 3.5 -0.9 0.9 0 0.8 0.4 -0.5 0.9 -1.1 0.5 -2.7 0.9 -3.5 0.9 -0.9 0 -0.8 -0.4 0.5 -0.9z"/>
  <path d="M291.5 158 c1.1 -0.5 2.7 -0.9 3.5 -0.9 0.9 0 0.8 0.4 -0.5 0.9 -1.1 0.5 -2.7 0.9 -3.5 0.9 -0.9 0 -0.8 -0.4 0.5 -0.9z"/>
  <path d="M299.9 155.5 c1.8 -0.8 3.9 -1.5 4.6 -1.5 0.7 0 4.2 -1.5 7.8 -3.3 3.6 -1.8 6.3 -2.9 6.1 -2.5 -0.8 1.3 -8.1 4.8 -14.3 6.9 -6.4 2.2 -9 2.4 -4.2 0.4z"/>
  <path d="M320 146.4 c0 -0.5 1.2 -2 2.7 -3.4 2.2 -2.1 2.5 -2.2 1.5 -0.4 -1.3 2.4 -4.2 5.1 -4.2 3.8z"/>
  <path d="M301.6 144.5 c-2.3 -1 -3.5 -2.7 -5.2 -7.1 -2.8 -7.1 -2.9 -10.6 -0.8 -14 1.6 -2.4 5.6 -5.3 5.2 -3.7 -0.2 1.1 1.2 9.9 2.4 14.8 1.8 7.7 3 9.5 6.3 9.6 2.9 0.1 3 0.1 0.5 0.9 -3.5 1.1 -5.1 1 -8.4 -0.5z"/>
  <path d="M337.3 128.1 c-2.4 -2.8 -4.3 -5.2 -4.3 -5.5 0 -0.6 5.2 5.1 7.9 8.7 2.8 3.5 0.4 1.5 -3.6 -3.2z"/>
  <path d="M314.5 121 c-0.3 -0.5 -2 -1.4 -3.8 -1.9 -2.3 -0.7 -2.6 -0.9 -1.1 -1 1.2 -0.1 3.2 0.8 4.5 1.9 1.3 1 2.1 1.9 1.7 2 -0.4 0 -1 -0.4 -1.3 -1z"/>
  <path d="M328.5 119 c-2.8 -2.9 -5.3 -4.1 -3.9 -1.8 0.5 0.7 0.3 0.8 -0.5 0.4 -0.7 -0.5 -1 -1.1 -0.7 -1.4 0.8 -0.7 -1.4 -3.2 -2.7 -3.2 -0.7 0 -0.7 0.4 0.1 1.2 0.7 0.7 1.2 1.7 1.2 2.3 -0.1 1.5 -3 -2.6 -3 -4.2 0 -1 0.5 -1.1 1.9 -0.4 2.1 1.2 11.9 10 11 10.1 -0.3 0 -1.8 -1.3 -3.4 -3z"/>
 </g>
 <g fill="#62beea">
  <path d="M318 239.9 c1.4 -1.2 2.5 -2.5 2.5 -2.9 0 -0.5 0.4 -1.2 0.9 -1.7 0.5 -0.4 0.6 -0.3 0.3 0.4 -0.4 0.6 -0.1 1.4 0.5 1.7 0.9 0.3 0.8 0.9 -0.6 2 -1 0.8 -2.3 1.3 -2.7 1 -0.5 -0.3 -0.9 0 -0.9 0.5 0 0.6 -0.6 1.1 -1.2 1.1 -0.7 -0.1 -0.2 -1 1.2 -2.1z"/>
  <path d="M328.2 207 c0 -1.9 0.2 -2.7 0.5 -1.7 0.2 0.9 0.2 2.5 0 3.5 -0.3 0.9 -0.5 0.1 -0.5 -1.8z"/>
  <path d="M215.2 196.5 c-0.1 -5.3 0.1 -6.4 0.9 -4.6 0.5 1.4 0.6 4.1 0 7 -0.9 4.6 -0.9 4.6 -0.9 -2.4z"/>
  <path d="M211.5 197.4 c-0.4 -2.9 -0.3 -5 0.4 -5.7 0.8 -0.8 1.1 0.5 1.1 4.6 0 3.1 -0.2 5.7 -0.4 5.7 -0.2 0 -0.7 -2.1 -1.1 -4.6z"/>
  <path d="M323.1 182.6 c-2.4 -2.5 -6.9 -5.8 -10 -7.5 -3.1 -1.7 -5.1 -3.1 -4.6 -3.1 2.2 0 11.3 6.1 15.5 10.4 2.4 2.5 4.2 4.6 3.9 4.6 -0.3 0 -2.4 -2 -4.8 -4.4z"/>
  <path d="M354.4 176 c0 -5.8 0.1 -8.1 0.3 -5.2 0.2 2.8 0.2 7.6 0 10.5 -0.2 2.8 -0.3 0.5 -0.3 -5.3z"/>
  <path d="M236.2 182.8 c0.8 -1.2 2.4 -2.2 3.6 -2.3 2.5 -0.2 6.4 -3.4 5.7 -4.6 -0.3 -0.4 0 -1.1 0.6 -1.5 0.8 -0.5 0.9 -0.3 0.4 0.6 -0.5 0.8 -0.3 1.1 0.6 0.8 0.8 -0.3 1.3 -1 1.2 -1.6 -0.2 -0.7 0.4 -0.9 1.4 -0.5 1.1 0.4 1.4 0.3 0.9 -0.5 -0.5 -0.8 -0.1 -1 1 -0.5 1.1 0.4 1.5 0.3 1 -0.5 -0.3 -0.6 0.2 -1.6 1.3 -2.1 3 -1.6 4 -1.2 1.1 0.4 -3.8 2.2 -1.5 1.8 6.4 -1.1 5.6 -2 43.9 -13.4 45.1 -13.4 0.9 0 1.2 7.6 0.3 10 -1 2.9 -1.2 3 -4.7 2.3 -4.9 -1.1 -26.6 -1 -31.6 0.1 -3.4 0.7 -3.7 1 -2 1.7 1.3 0.6 0.5 0.7 -2.5 0.3 -3.5 -0.4 -4.2 -0.3 -3 0.6 1.2 0.9 1 1 -0.9 0.5 -1.7 -0.5 -2.1 -0.4 -1.6 0.5 0.5 0.9 0.1 1 -1.5 0.5 -1.6 -0.5 -2 -0.4 -1.5 0.5 0.5 0.9 0.1 1 -1.5 0.5 -1.5 -0.5 -2 -0.4 -1.6 0.4 0.5 0.7 0.1 0.8 -1 0.4 -1.3 -0.5 -1.5 -0.3 -0.9 0.7 0.6 1 0.4 1.2 -0.8 0.7 -1 -0.3 -1.7 -0.2 -1.7 0.4 0 0.6 -0.4 0.7 -1 0.4 -0.5 -0.3 -1 -0.1 -1 0.6 0 0.7 -0.3 0.9 -0.6 0.6 -0.4 -0.4 -1.6 0.4 -2.8 1.6 -4.5 4.9 -11.2 7.7 -8.4 3.5z"/>
  <path d="M217.1 173.9 c3.7 -7 17.5 -16.7 20 -14.2 0.6 0.6 -1.4 1.9 -4.6 3.2 -5 2.1 -13.5 9.8 -13.5 12.2 0 0.5 -0.7 0.9 -1.5 0.9 -1.3 0 -1.4 -0.4 -0.4 -2.1z"/>
  <path d="M282.8 168.3 c2.3 -0.2 5.9 -0.2 8 0 2 0.2 0.1 0.4 -4.3 0.4 -4.4 0 -6.1 -0.2 -3.7 -0.4z"/>
  <path d="M280.5 161 c1.1 -0.5 2.7 -0.9 3.5 -0.9 0.9 0 0.8 0.4 -0.5 0.9 -1.1 0.5 -2.7 0.9 -3.5 0.9 -0.9 0 -0.8 -0.4 0.5 -0.9z"/>
  <path d="M301 155 c0.8 -0.5 2.2 -1 3 -1 1.3 0 1.3 0.1 0 1 -0.8 0.5 -2.2 1 -3 1 -1.3 0 -1.3 -0.1 0 -1z"/>
  <path d="M311.1 151.7 c1.6 -1.2 7.9 -4.5 7.9 -4.2 0 0.7 -6.3 4.5 -7.4 4.5 -0.5 0 -0.7 -0.1 -0.5 -0.3z"/>
  <path d="M301 144.2 c-4.5 -2.2 -8 -7.5 -8 -12.1 0 -4.4 2.8 -9.9 6.1 -12 2.2 -1.4 2.1 -1.3 -0.3 1.1 -2.7 2.6 -2.7 2.8 -1.4 7 4.1 13.2 4.7 14.5 7.9 16.1 2.4 1.2 2.7 1.6 1.2 1.6 -1.1 0 -3.6 -0.8 -5.5 -1.7z"/>
  <path d="M313.1 143.8 c0.2 -0.2 1.8 -1.4 3.4 -2.8 l3 -2.5 -2.4 2.8 c-1.4 1.5 -2.9 2.7 -3.4 2.7 -0.6 0 -0.8 -0.1 -0.6 -0.2z"/>
  <path d="M355 140 c0 -1.5 5.1 -3.3 6.2 -2.2 0.6 0.6 -0.3 1.4 -2.3 2.1 -3.9 1.3 -3.9 1.3 -3.9 0.1z"/>
  <path d="M326.3 133.5 c0 -2.2 0.2 -3 0.4 -1.7 0.2 1.2 0.2 3 0 4 -0.3 0.9 -0.5 -0.1 -0.4 -2.3z"/>
  <path d="M222.3 134.3 c-0.8 -0.3 -0.6 -1.1 0.5 -2.5 2.3 -2.9 11.6 -11.7 14.3 -13.6 3.4 -2.4 1.2 0.9 -3 4.4 -1.9 1.5 -5 4.9 -7 7.4 -2 2.6 -4.2 4.5 -4.8 4.3z"/>
  <path d="M320.2 132 c0 -1.9 0.2 -2.7 0.5 -1.7 0.2 0.9 0.2 2.5 0 3.5 -0.3 0.9 -0.5 0.1 -0.5 -1.8z"/>
  <path d="M311.5 119.5 c-1.6 -0.8 -2.3 -1.4 -1.4 -1.5 0.8 0 2.4 0.7 3.5 1.5 2.3 1.8 1.8 1.8 -2.1 0z"/>
  <path d="M205.4 117.5 c-0.7 -1.8 0.1 -3.2 2.9 -4.7 2 -1 2.1 -1 0.9 0.5 -0.8 0.9 -1.1 2.5 -0.7 3.7 0.5 1.4 0.2 2 -1 2 -0.8 0 -1.8 -0.7 -2.1 -1.5z"/>
  <path d="M320 114.9 c-0.6 -1.1 -1 -2.5 -0.8 -3 0.2 -0.5 0.8 0.4 1.5 2.1 1.3 3.4 0.9 4 -0.7 0.9z"/>
  <path d="M337 112.4 c0 -0.8 0.6 -1.4 1.4 -1.4 0.7 0 1.9 0.6 2.5 1.4 0.9 1.1 0.6 1.4 -1.4 1.4 -1.5 0 -2.5 -0.6 -2.5 -1.4z"/>
  <path d="M303.3 94.9 c0.9 -0.5 1.7 -1.4 1.7 -1.9 0 -0.6 -0.8 -1 -1.7 -1.1 -1.2 -0.1 -0.9 -0.4 0.7 -0.8 3.4 -1.1 4.1 -0.5 2.8 2.4 -0.7 1.5 -1.9 2.5 -3.2 2.5 -1.9 -0.1 -1.9 -0.2 -0.3 -1.1z"/>
  <path d="M282.4 92.3 c-0.4 -1 -0.6 -2.3 -0.5 -2.9 0.1 -0.7 -1.1 -1.5 -2.5 -1.8 -1.4 -0.4 -2.4 -0.9 -2.2 -1.1 0.2 -0.2 1.7 -0.1 3.4 0.4 2.4 0.6 2.9 1.3 3.1 3.9 0.1 3.6 -0.1 4 -1.3 1.5z"/>
 </g>
</svg>